<svg xmlns="http://www.w3.org/2000/svg" version="1.1" x="0" y="0" width="599.5" height="173.6" viewBox="0 0 599.5 173.6" enable-background="new 0 0 599.545 173.572" xml:space="preserve"><polygon points="84 153.5 98.5 149.7 98.6 149.7 113.8 145.9 113.7 145.7 117.4 144.7 112.9 127.8 104.1 130.2 74.7 89.7 81.3 39.7 90.7 37.8 87.2 20.7 82.2 21.7 82.2 21.6 79.6 22.3 53.4 27.6 56.9 44.7 64.8 43.1 59.2 85.9 39.8 90.9 29.7 51.1 37.3 49.6 33.8 32.5 0 39.5 3.5 56.5 14 54.4 37.6 147.3 29 149.6 33.4 166.4 46 163.1 57.4 160.2 57.4 160.1 66.8 157.6 62.3 140.8 53.1 143.2 43.5 105.4 62.9 100.5 87.6 134.5 79.6 136.6 "/><rect x="49.5" y="149.7" transform="matrix(-0.237 -0.9715 0.9715 -0.237 -99.03 257.1231)" width="3.9" height="35.6"/><polygon points="46.3 106.6 47.2 110.4 64.5 106.1 62.3 102.6 "/><rect x="99.5" y="137" transform="matrix(-0.237 -0.9715 0.9715 -0.237 -24.8374 290.0906)" width="3.9" height="35.6"/><rect x="6.9" y="54.9" transform="matrix(-0.2037 -0.979 0.979 -0.2037 -47.4189 80.2115)" width="3.9" height="9"/><polygon points="62.9 45.1 57.4 46.4 58.2 50.3 62.4 49.1 "/><rect x="32.1" y="51.8" transform="matrix(-0.9791 0.2033 -0.2033 -0.9791 80.3493 99.2468)" width="6.1" height="3.9"/><polygon points="82.5 44.6 92 42.7 91.2 38.8 83 40.6 "/><path d="M226.2 114.7l-10 1.2L181.7 8.1l-30.5 3.4 -9.5 112.8 -11.1 1.5 2.3 17.3 18-2.4 5.3-0.6 0-0.1 10.8-1.5 -2.3-17.3 -6.9 0.9 1.4-16.7 35.5-4 5.1 16.4 -8 0.9 2 17.3 34.2-4L226.2 114.7zM160.7 90.1l5.6-65.2 4-0.4 19.9 62.3L160.7 90.1z"/><rect x="148.9" y="127.5" transform="matrix(-0.1375 -0.9905 0.9905 -0.1375 27.7303 314.772)" width="3.9" height="35.6"/><polygon points="192.8 104.2 160.8 107.9 160.6 111.9 193.9 108 "/><polygon points="194.2 138.2 194.6 142.1 229.1 138.2 228.6 134.2 "/><rect x="167.4" y="26.6" transform="matrix(-0.1237 -0.9923 0.9923 -0.1237 161.7915 198.9083)" width="2.7" height="2.7"/><polygon points="306 77.2 288.4 77.3 288.4 81.2 306 81.1 "/><path d="M290.7 134.8c-21.8 1.2-32.9-7.2-34.6-14.3 3 15.2 16.9 19 34.6 18.1 30.8-2.1 35-20.2 35-20.2S317.3 133.6 290.7 134.8M287.5 16.7c-16.4 1.6-17.1 9.7-17.1 9.7s5.9-7.1 17.2-6.9c5.7-0.4 12 1.4 17.4 8.1C305 21 298 16.6 287.5 16.7M289.9 132.3c21.6-0.4 35.9-9.7 35.5-28.8l-0.9-45.5 -36.1 0.7 0.3 15 20-0.4 0.6 30.5c0.2 8.6-6.4 13.2-19.8 13.4 -13.4 0.3-20.1-4-20.3-12.6l-1.5-76.2c-0.2-8.6 6.4-13.2 19.8-13.4 13.4-0.3 20.1 4 20.3 12.6l0.2 12 16-0.3 -0.2-12c-0.4-19-15-27.8-36.6-27.4 -21.6 0.4-35.9 9.7-35.5 28.8l1.5 76.2C253.6 124 268.2 132.7 289.9 132.3"/><polygon points="360.9 137.7 393.8 139.2 394 135.3 361 133.8 "/><polygon points="370.9 74.6 364 74.3 363.8 78.2 370.7 78.6 "/><polygon points="390.4 79.5 397.3 79.8 397.4 75.9 390.6 75.6 "/><polygon points="373.5 20.4 366.6 20.1 366.5 24 373.3 24.3 "/><polygon points="393 25.3 399.9 25.6 400.1 21.7 393.2 21.4 "/><polygon points="391.3 18.8 399.3 19.2 400.1 4.2 368 2.6 367.3 17.7 375.3 18 373.5 54.1 365.1 53.6 364 71 372.7 71.5 370.5 116.1 362.5 115.7 361.8 130.8 393.8 132.3 394.5 117.3 386.5 116.9 388.7 72.5 398.4 73.1 399.5 55.7 389.5 55.1 "/><path d="M465.4 141.6c-0.2 0-0.5-0.1-0.7-0.1l-32-4 -0.5 3.9 32.4 4.1c0 0 0 0 0 0s27.3 5.3 38.1-11.1C502.8 134.4 492.7 145.5 465.4 141.6M488.5 30.7l-23.2-3.2 -0.1 2 21.7 2.8c0 0 8.4 0.7 11.3 9.4C498.8 32.3 488.5 30.7 488.5 30.7M483.2 87.6l-25.2-4.2 -0.4 2.4 23.8 3.9c0 0 9 1.1 10.8 12.7C493.9 89.3 483.2 87.6 483.2 87.6M485.5 12.4l-35.8-4.7 -16.6 127.2 35.8 4.7c21.5 2.8 36.9-4.3 39.4-23.2l2-15.3c2.5-19.5-14.2-23.1-14.2-23.1l3.9-0.3c5-0.8 12.2-6.7 13.6-17.6l2-15.5C518 26.6 504.5 14.9 485.5 12.4M494.4 99.1l-2 15.3c-1.1 8.5-8.2 12.1-21.6 10.3l-19.9-2.6 5.4-41.1 19.9 2.6C489.5 85.3 495.5 90.5 494.4 99.1M499.7 42.6l-2 15.5c-1.1 8.5-7.6 12.1-19.6 10.6l-19.9-2.6 5.4-41.3 19.9 2.6C495.4 28.9 500.8 34 499.7 42.6"/><polygon points="535 157.9 566.9 166.1 567.9 162.3 536 154.1 "/><polygon points="556.6 100.4 549.5 98.4 548.5 102.2 555.6 104.2 "/><polygon points="570.9 45.2 564.7 43.6 563.7 47.4 570 49 "/><polygon points="588.2 53.5 594.4 55.1 595.4 51.3 589.2 49.7 "/><polygon points="574.4 108.1 582.2 110.1 583.2 106.3 575.4 104.3 "/><polygon points="568.4 26.8 564.8 41.4 572.6 43.3 563 81.7 554.2 79.6 550.2 96.6 558.8 98.6 548.8 138.6 541 136.6 537.3 151.2 568.5 159 572.1 144.4 564.3 142.5 574.4 102.2 583.8 104.4 587.7 87.5 578.6 85.3 588.1 47.2 595.9 49.1 599.5 34.6 "/><polygon points="307.5 46.9 324.4 46.8 324.4 42.9 307.5 43 "/></svg>
